<?xml version="1.0" encoding="UTF-8" standalone="no"?>
<svg
   xmlns:dc="http://purl.org/dc/elements/1.1/"
   xmlns:cc="http://creativecommons.org/ns#"
   xmlns:rdf="http://www.w3.org/1999/02/22-rdf-syntax-ns#"
   xmlns:svg="http://www.w3.org/2000/svg"
   xmlns="http://www.w3.org/2000/svg"
   xmlns:sodipodi="http://sodipodi.sourceforge.net/DTD/sodipodi-0.dtd"
   xmlns:inkscape="http://www.inkscape.org/namespaces/inkscape"
   width="85.277206mm"
   height="26.599857mm"
   viewBox="0 0 85.277204 26.599857"
   version="1.1"
   id="svg2006"
   inkscape:version="1.0.1 (3bc2e813f5, 2020-09-07)"
   sodipodi:docname="New_York_State_Department_of_Health.svg">
  <defs
     id="defs2000">
    <clipPath
       id="clip1">
      <path
         d="m 301,1140 h 62 v 48 h -62 z m 0,0"
         id="path510" />
    </clipPath>
    <clipPath
       id="clip2">
      <path
         d="m 348.96094,1140.1211 c -0.32422,0.039 -0.63282,0.078 -0.83985,0.078 -0.7539,0 -1.51562,0.024 -2.27734,0.043 -1.51953,0.039 -3.09375,0.078 -4.60547,-0.01 l -0.15234,-0.01 c -0.8125,-0.047 -1.21875,-0.07 -2.07813,0.2539 -0.65234,0.2422 -1.34765,0.6523 -1.88281,0.9804 -0.66016,0.4063 -1.19922,0.918 -1.72656,1.4102 -0.10938,0.1016 -0.21485,0.2031 -0.32813,0.3047 -0.17578,0.1601 -0.39453,0.3398 -0.63281,0.5234 -0.70703,0.5664 -1.50781,1.2031 -1.83594,2.0235 -0.0703,0.1679 -0.0976,0.3671 -0.12109,0.5546 -0.0156,0.1016 -0.0352,0.254 -0.0586,0.336 -0.32031,0.2265 -0.59375,0.4765 -0.85937,0.7226 -0.11719,0.1094 -0.23438,0.2227 -0.36328,0.3321 -0.30469,0.2656 -0.6875,0.4726 -1.09766,0.6875 -0.29297,0.1562 -0.59765,0.3203 -0.88281,0.5117 l -0.12109,0.078 c -0.33594,0.2149 -0.79688,0.5039 -0.94532,0.957 -0.17968,0.5469 0.14453,1.504 0.73438,1.7774 0.36719,0.168 0.6875,0.043 0.88672,-0.051 0.0156,0.047 0.0273,0.094 0.0273,0.1328 0.004,0.1836 -0.13281,0.375 -0.36328,0.668 -0.28906,0.3711 -0.65234,0.832 -0.61328,1.4883 0.0156,0.2304 0.0898,0.4843 0.17187,0.7773 0.1211,0.4219 0.32032,1.125 0.0937,1.2227 -0.0547,0.023 -0.23437,0.016 -0.35547,0.01 -0.33984,-0.016 -0.85546,-0.043 -1.24218,0.3555 -0.21485,0.2148 -0.48438,0.3945 -0.79297,0.5859 l -0.1211,0.07 c -0.28515,0.1797 -0.64453,0.3945 -0.89453,0.7344 -0.0586,0.082 -0.10547,0.1601 -0.14843,0.2344 -0.008,0.019 -0.0195,0.039 -0.0274,0.055 -0.13672,0.027 -0.26953,0.047 -0.40234,0.066 -0.27344,0.043 -0.55078,0.086 -0.85156,0.1797 -0.13672,0.039 -0.27344,0.094 -0.41407,0.1446 -0.32422,0.1172 -0.65234,0.2382 -0.91406,0.2265 -0.23437,-0.01 -0.46484,-0.031 -0.69531,-0.055 -0.51172,-0.047 -1.04297,-0.098 -1.60938,-0.023 -0.34765,0.047 -0.63281,0.1484 -0.88281,0.2383 -0.50391,0.1758 -0.62109,0.207 -0.91016,-0.059 -0.5664,-0.5195 -0.93359,-0.6602 -1.6875,-0.8008 l -1.84375,-0.3516 c -0.33203,-0.062 -0.63281,0 -0.8789,0.043 -0.16016,0.035 -0.30078,0.062 -0.40235,0.047 -1.73437,-0.2539 -3.63281,0.062 -5.98046,0.9961 -0.78125,0.3125 -1.01172,0.625 -0.9375,1.3008 0.0195,0.1601 0.0391,0.3398 0,0.6211 -0.0391,0.2773 -0.0508,0.6289 0.18359,0.8984 0.23828,0.2656 0.55469,0.2578 0.72656,0.2578 0.0547,0 0.125,0 0.14844,0.01 0.0234,0.016 0.0352,0.024 0.0352,0.024 0.0234,0.066 -0.0195,0.289 -0.0391,0.4062 -0.0156,0.07 -0.0234,0.1367 -0.0351,0.2031 -0.10157,0.6641 0.0469,0.9844 0.21875,1.3555 0.0351,0.078 0.0781,0.168 0.12109,0.2734 0.0937,0.2188 0.10547,0.2539 -0.48047,0.586 -0.25781,0.1445 -0.55078,0.3086 -0.78125,0.5469 -0.21094,0.2187 -0.34765,0.4687 -0.46875,0.6914 -0.11328,0.2031 -0.20703,0.3789 -0.33594,0.4882 -0.17968,0.1485 -0.4375,0.2852 -0.71484,0.4297 -0.32031,0.1719 -0.64844,0.3477 -0.94141,0.5821 -0.20703,0.1757 -0.39843,0.3593 -0.58203,0.539 -0.24218,0.2422 -0.47265,0.4649 -0.72656,0.6367 -0.0977,0.066 -0.28125,0.1446 -0.45703,0.2227 -0.47656,0.2109 -1.01172,0.4492 -1.28906,0.8906 -0.0586,0.094 -0.0899,0.2031 -0.0899,0.3125 l 0.004,2.0938 c 0,0.3906 0.0469,0.832 0.36719,1.1211 0.33203,0.2968 0.74218,0.25 1.10937,0.207 0.16016,-0.02 0.32813,-0.039 0.51953,-0.039 l 29.96485,0.023 c 0.90625,0 1.77734,0.023 2.50781,0.2734 0.0977,0.035 0.24219,0.1992 0.33594,0.3047 0.0898,0.1016 0.16797,0.1875 0.23828,0.2461 0.23047,0.1914 0.47656,0.293 0.69531,0.3789 0.17578,0.07 0.32813,0.1328 0.42188,0.2266 0.1914,0.1914 0.19531,0.4921 0.1914,0.9648 -0.004,0.1563 -0.004,0.3086 0.004,0.457 0.0586,1.1407 0.51172,1.6016 1.03125,2.1368 0.0703,0.07 0.14453,0.1445 0.22265,0.2265 0.3711,0.3945 0.84375,0.4336 1.15235,0.457 0.0703,0 0.16406,0.012 0.20312,0.016 0.0547,0.086 0.13672,0.2695 0.15235,0.3437 0.10547,0.5156 0.73047,0.875 1.67578,1.3633 0.14453,0.074 0.26562,0.1367 0.33594,0.1758 l 0.30078,0.1875 c 0.85547,0.5234 1.71093,1.0469 2.57031,1.5703 0.13672,0.082 0.27734,0.1562 0.41797,0.2344 0.29687,0.1562 0.57812,0.3008 0.74219,0.5039 0.0508,0.07 0.0547,0.074 0.0273,0.3828 -0.0312,0.3437 -0.0898,0.6953 -0.17969,1.0742 -0.008,0.047 -0.0234,0.094 -0.0391,0.1406 -0.0312,0.1094 -0.0742,0.2422 -0.0898,0.4024 -0.0274,0.1914 -0.0391,0.4023 0.004,0.6445 -0.0625,0.043 -0.13281,0.098 -0.20703,0.1797 -0.0664,0.07 -0.12109,0.1523 -0.17578,0.2305 l -0.0547,0.078 c -0.16406,0.2422 -0.22656,0.5 -0.17187,0.7344 0.0469,0.2031 0.17578,0.3711 0.35937,0.4726 0.125,0.062 0.25,0.086 0.3711,0.086 0.16796,0 0.32812,-0.047 0.4414,-0.082 l 0.0469,-0.012 c 0.39062,-0.09 0.78515,-0.1641 1.17968,-0.2344 l 0.45313,-0.086 c 0.64844,-0.1172 1.31641,-0.2383 1.97266,-0.3906 0.19531,-0.047 0.4375,-0.1289 0.71875,-0.2227 0.35546,-0.1211 1.09765,-0.375 1.28906,-0.3515 0.44531,0.1445 0.84765,-0.035 1.16797,-0.1836 0.21484,-0.094 0.42187,-0.1875 0.63281,-0.1993 0.73828,-0.027 1.32422,-0.125 1.89062,-0.3086 0.33204,-0.1093 0.61719,-0.2695 0.89063,-0.4218 0.27344,-0.1485 0.52734,-0.293 0.77734,-0.3555 0.21875,-0.055 0.4336,-0.1172 0.65235,-0.1797 0.48437,-0.1367 0.96484,-0.289 1.4414,-0.4414 l 0.63282,-0.1992 c 0.66406,-0.2031 2.05078,-0.6289 2.0625,-1.6563 0.004,-0.2734 -0.17969,-0.5117 -0.44532,-0.582 -0.4414,-0.1133 -0.875,-0.066 -1.25781,-0.023 -0.37891,0.039 -0.70703,0.074 -0.98828,-0.035 -0.0977,-0.039 -0.16016,-0.086 -0.23828,-0.1445 -0.24219,-0.1875 -0.51953,-0.3594 -1.0586,-0.2774 -0.63671,0.098 -1.20703,0.2969 -1.75781,0.4961 -0.69531,0.2461 -1.35156,0.4805 -2.08984,0.4805 -1.66797,0 -2.96094,0.1563 -4.19141,0.5078 -0.32812,0.09 -0.63672,0.1914 -0.92969,0.2969 0.0156,-0.051 0.0234,-0.1055 0.0352,-0.1602 0.0586,-0.3711 -0.10937,-0.6797 -0.24609,-0.9179 1.05468,-0.5821 1.45703,-0.875 1.54687,-1.2657 0.043,-0.1836 0.008,-0.3789 -0.0976,-0.5312 -0.45704,-0.6563 -0.31641,-1.8008 -0.19141,-2.8164 0.043,-0.3477 0.0859,-0.6797 0.10156,-0.9961 0.0234,-0.3242 -0.22656,-0.6055 -0.55078,-0.625 -0.33203,-0.019 -0.60937,0.2305 -0.62891,0.5547 -0.0156,0.2812 -0.0547,0.5937 -0.0976,0.9219 -0.12891,1.0703 -0.28125,2.2656 0.16406,3.2382 -0.29687,0.1993 -0.78906,0.4688 -0.98047,0.5743 -0.14062,0.074 -0.24609,0.1328 -0.29687,0.164 -0.13282,0.086 -0.22657,0.2149 -0.26172,0.3672 -0.0937,0.3945 0.10156,0.7305 0.24609,0.9727 0.0352,0.062 0.0899,0.1523 0.11328,0.2031 -0.0273,0.062 -0.10937,0.1406 -0.23437,0.25 -0.1211,0.1133 -0.25781,0.2383 -0.375,0.4023 -0.0625,0.09 -0.11719,0.1797 -0.16797,0.2735 0.0312,-0.3477 0.0547,-0.7383 -0.29297,-1.1719 -0.31641,-0.3945 -0.73828,-0.6172 -1.11328,-0.8125 -0.12109,-0.062 -0.23828,-0.125 -0.35156,-0.1953 -0.85938,-0.5235 -1.71485,-1.0469 -2.57032,-1.5703 l -0.30078,-0.1836 c -0.0859,-0.051 -0.23047,-0.1289 -0.40625,-0.2188 -0.2539,-0.1328 -0.90234,-0.4687 -1.08593,-0.6445 -0.0742,-0.2539 -0.27344,-0.7422 -0.57032,-0.9609 -0.26953,-0.2032 -0.57812,-0.2266 -0.82422,-0.2461 -0.20703,-0.02 -0.33203,-0.031 -0.39062,-0.094 -0.082,-0.086 -0.16016,-0.1641 -0.23438,-0.2422 -0.46484,-0.4726 -0.66015,-0.6719 -0.69531,-1.3633 -0.008,-0.125 -0.004,-0.2539 -0.004,-0.3867 0.008,-0.5586 0.0156,-1.2578 -0.53516,-1.8125 -0.26172,-0.2656 -0.57031,-0.3906 -0.81641,-0.4883 -0.16015,-0.062 -0.29297,-0.1171 -0.3789,-0.1875 -0.0352,-0.031 -0.0703,-0.074 -0.10938,-0.1211 -0.17969,-0.2031 -0.44922,-0.5078 -0.84375,-0.6445 -0.89453,-0.3086 -1.92187,-0.3359 -2.89062,-0.3359 l -29.96485,-0.024 c -0.25781,0 -0.48047,0.024 -0.65625,0.047 -0.0469,0 -0.10156,0.012 -0.15234,0.016 0,-0.047 -0.004,-0.1015 -0.004,-0.1679 l -0.004,-1.8672 c 0.16406,-0.1211 0.48437,-0.2617 0.67187,-0.3438 0.23438,-0.1054 0.45313,-0.2031 0.63281,-0.3203 0.35547,-0.2304 0.63672,-0.5117 0.91016,-0.7812 0.16797,-0.168 0.33203,-0.3282 0.49609,-0.4649 0.19922,-0.164 0.46485,-0.3008 0.7461,-0.4492 0.3164,-0.168 0.64844,-0.3437 0.92578,-0.5742 0.29687,-0.25 0.46484,-0.5586 0.60937,-0.8281 0.0937,-0.1719 0.17969,-0.3321 0.28125,-0.4336 0.10938,-0.1172 0.3125,-0.2266 0.50782,-0.3399 0.52734,-0.2968 1.51172,-0.8476 0.99609,-2.0742 -0.0508,-0.1211 -0.0977,-0.2226 -0.14062,-0.3164 -0.14063,-0.3047 -0.17188,-0.3672 -0.1211,-0.6758 0.008,-0.055 0.0156,-0.1094 0.0274,-0.164 0.0742,-0.4063 0.23437,-1.2539 -0.60938,-1.6954 -0.14844,-0.078 -0.28906,-0.1132 -0.41406,-0.1328 0.0273,-0.3242 0.004,-0.5586 -0.0156,-0.7226 0.0469,-0.02 0.10938,-0.047 0.19532,-0.082 2.14453,-0.8515 3.85156,-1.1484 5.37109,-0.9257 0.30469,0.043 0.58203,-0.01 0.80469,-0.055 0.17187,-0.035 0.32031,-0.062 0.42968,-0.043 l 1.83985,0.3477 c 0.60156,0.1172 0.74609,0.1836 1.11328,0.5156 0.82422,0.7539 1.5625,0.4922 2.10156,0.3008 0.21485,-0.078 0.42188,-0.1485 0.64453,-0.1797 0.42969,-0.059 0.8711,-0.016 1.33985,0.027 0.2539,0.027 0.5039,0.051 0.76172,0.059 0.49218,0.024 0.95703,-0.1484 1.36718,-0.3008 0.1211,-0.043 0.24219,-0.09 0.35938,-0.125 0.21094,-0.066 0.4375,-0.1015 0.67578,-0.1367 0.16797,-0.023 0.33594,-0.051 0.50391,-0.086 0.48828,-0.1016 0.67187,-0.4297 0.78125,-0.6211 0.0234,-0.039 0.0469,-0.082 0.0742,-0.1211 0.10938,-0.1484 0.33594,-0.2852 0.55469,-0.4219 l 0.13281,-0.078 c 0.35938,-0.2227 0.70704,-0.4492 0.9961,-0.7539 0.0547,-0.023 0.23828,-0.012 0.34765,-0.01 0.26172,0.012 0.58204,0.031 0.89454,-0.1055 1.17187,-0.5156 0.78125,-1.8906 0.57031,-2.6328 -0.0586,-0.1992 -0.1211,-0.4258 -0.12891,-0.5313 -0.0117,-0.1953 0.12891,-0.3867 0.36328,-0.6835 0.28125,-0.3555 0.63282,-0.8008 0.61719,-1.4297 -0.0156,-0.5235 -0.34766,-1.2891 -1.04297,-1.3477 -0.24219,-0.019 -0.44531,0.066 -0.58984,0.1367 -0.0312,-0.078 -0.0586,-0.1758 -0.0664,-0.2461 0.0859,-0.098 0.33203,-0.2539 0.44531,-0.3242 0.0508,-0.035 0.10157,-0.066 0.14454,-0.094 0.23437,-0.1602 0.5,-0.3008 0.77734,-0.4493 0.45312,-0.2382 0.91797,-0.4843 1.32031,-0.8437 0.13672,-0.1172 0.26563,-0.2344 0.39063,-0.3516 0.26172,-0.2422 0.51172,-0.4726 0.78515,-0.6562 0.38672,-0.2578 0.45313,-0.7344 0.5,-1.1172 0.0117,-0.09 0.0312,-0.2266 0.0469,-0.2695 0.21094,-0.5274 0.88281,-1.0625 1.48047,-1.5352 0.25,-0.2031 0.48437,-0.3906 0.69531,-0.582 0.11328,-0.1055 0.22266,-0.2071 0.33594,-0.3125 0.5039,-0.4727 0.97656,-0.918 1.53515,-1.2617 0.44922,-0.2813 1.11719,-0.6719 1.67578,-0.8829 0.625,-0.2343 0.83204,-0.2226 1.59375,-0.1796 l 0.15625,0.01 c 1.5625,0.09 3.15625,0.047 4.70313,0.01 0.75391,-0.019 1.50781,-0.035 2.25781,-0.039 0.26953,0 0.61328,-0.047 0.97656,-0.09 0.6211,-0.078 1.78516,-0.2227 2.08204,0.039 0.0195,0.012 0.0469,0.039 0.0547,0.1329 -0.008,0.027 -0.0547,0.1093 -0.082,0.164 -0.10156,0.1758 -0.23437,0.418 -0.23437,0.7461 0,0.3555 0.16015,0.5938 0.25781,0.7383 0.0195,0.031 0.043,0.059 0.0508,0.059 -0.0273,0.1445 -0.0703,0.2969 -0.11328,0.4492 -0.0781,0.293 -0.17188,0.625 -0.18359,0.9492 -0.0117,0.3281 0.24609,0.6055 0.57421,0.6133 0.32032,0.02 0.60157,-0.2422 0.61329,-0.5703 0.004,-0.1875 0.0742,-0.4375 0.13671,-0.6758 0.0547,-0.1914 0.10547,-0.3789 0.13672,-0.5547 0.082,-0.457 -0.12109,-0.7656 -0.23437,-0.9297 -0.0195,-0.035 -0.0547,-0.086 -0.0547,-0.074 0.004,-0.031 0.0508,-0.1172 0.0859,-0.1758 0.10156,-0.1797 0.23437,-0.4257 0.22656,-0.7539 -0.008,-0.414 -0.16797,-0.7656 -0.45703,-1.0156 -0.39063,-0.3359 -0.94531,-0.4375 -1.55078,-0.4375 -0.47656,0 -0.98047,0.062 -1.45703,0.1211 m -0.32422,44.9766 c 0.67969,-0.4375 1.5,-0.793 2.50781,-1.0782 1.12109,-0.3164 2.31641,-0.4609 3.86719,-0.4609 0.9414,0 1.72656,-0.2813 2.48437,-0.5469 0.52344,-0.1875 1.01563,-0.3633 1.53907,-0.4414 0.0547,-0.01 0.0859,-0.01 0.0859,-0.012 0.0274,0.016 0.0508,0.035 0.0781,0.055 0.10547,0.082 0.26953,0.207 0.52734,0.3125 0.16797,0.062 0.33594,0.1055 0.5,0.1289 l -0.43359,0.1328 c -0.46485,0.1484 -0.9336,0.2969 -1.40625,0.4336 -0.20313,0.055 -0.41016,0.1133 -0.61719,0.1641 -0.40234,0.1054 -0.73828,0.2929 -1.0625,0.4726 -0.23828,0.1328 -0.46484,0.2578 -0.68359,0.3281 -0.46094,0.1524 -0.94532,0.2305 -1.57422,0.2579 -0.4375,0.019 -0.78906,0.1757 -1.07031,0.3007 -0.10938,0.051 -0.28125,0.1289 -0.3125,0.1328 -0.46875,-0.1523 -1.11329,0.043 -2.03907,0.3594 -0.24218,0.082 -0.46875,0.1602 -0.60156,0.1914 -0.62891,0.1446 -1.28516,0.2657 -1.91406,0.3789 l -0.46094,0.082 c -0.13672,0.023 -0.27344,0.051 -0.40625,0.078 0.0391,-0.1524 0.0469,-0.3359 0,-0.5586 -0.0156,-0.082 -0.0156,-0.1602 0.004,-0.3125 0.004,-0.051 0.0234,-0.1094 0.0469,-0.1914 0.0234,-0.07 0.043,-0.1406 0.0625,-0.2188 0.0156,-0.062 0.0274,-0.125 0.043,-0.1875 0.043,0.074 0.10547,0.1407 0.17969,0.1954 0.10156,0.066 0.21484,0.1015 0.33203,0.1015 0.11328,0 0.22266,-0.035 0.32422,-0.098"
         id="path513" />
    </clipPath>
  </defs>
  <sodipodi:namedview
     id="base"
     pagecolor="#ffffff"
     bordercolor="#666666"
     borderopacity="1.0"
     inkscape:pageopacity="0.0"
     inkscape:pageshadow="2"
     inkscape:zoom="5.6568542"
     inkscape:cx="163.4757"
     inkscape:cy="73.087035"
     inkscape:document-units="mm"
     inkscape:current-layer="layer1"
     inkscape:document-rotation="0"
     showgrid="false"
     lock-margins="true"
     fit-margin-top="3.3"
     fit-margin-left="3.3"
     fit-margin-right="3.3"
     fit-margin-bottom="3.3"
     inkscape:window-width="1600"
     inkscape:window-height="1137"
     inkscape:window-x="-8"
     inkscape:window-y="-8"
     inkscape:window-maximized="1" />
  <metadata
     id="metadata2003">
    <rdf:RDF>
      <cc:Work
         rdf:about="">
        <dc:format>image/svg+xml</dc:format>
        <dc:type
           rdf:resource="http://purl.org/dc/dcmitype/StillImage" />
        <dc:title></dc:title>
      </cc:Work>
    </rdf:RDF>
  </metadata>
  <g
     inkscape:label="Layer 1"
     inkscape:groupmode="layer"
     id="layer1"
     transform="translate(92.546333,52.587929)">
    <path
       style="fill:#523178;fill-opacity:1;fill-rule:nonzero;stroke:none;stroke-width:0.416676"
       d="m -48.578021,-44.960657 c -0.309255,0 -0.566423,0.06025 -0.566423,0.06025 v 3.574295 c 0,0 0.203455,0.06021 0.581068,0.06021 0.838238,0 1.346063,-0.649431 1.346063,-1.844127 0,-1.171903 -0.491549,-1.850629 -1.360708,-1.850629 m -0.09115,4.541151 c -0.914737,0 -1.639038,-0.205087 -1.639038,-0.205087 v -4.978952 c 0,0 0.657568,-0.211631 1.630898,-0.211631 1.85226,0 2.623762,0.906605 2.623762,2.644938 0,1.798543 -0.817079,2.750732 -2.615622,2.750732"
       id="path522" />
    <path
       style="fill:#523178;fill-opacity:1;fill-rule:nonzero;stroke:none;stroke-width:0.416676"
       d="m -43.244236,-42.732396 c 0,-0.529011 -0.157882,-0.914729 -0.633153,-0.914729 -0.468761,0 -0.703142,0.340174 -0.703142,0.914729 z m 0.628271,1.171903 c 0.218106,0.11229 0.377612,0.483387 0.23438,0.747061 0,0 -0.483411,0.393926 -1.391632,0.393926 -1.184927,0 -1.918994,-0.695016 -1.918994,-2.003631 0,-1.367242 0.808935,-2.032924 1.904343,-2.032924 1.095404,0 1.655314,0.673807 1.655314,1.883169 v 0.468761 h -2.447977 c 0.02278,0.50618 0.332039,0.875688 0.869159,0.875688 0.581069,0 1.095407,-0.33205 1.095407,-0.33205"
       id="path524" />
    <path
       style="fill:#523178;fill-opacity:1;fill-rule:nonzero;stroke:none;stroke-width:0.416676"
       d="m -39.873387,-43.647125 c -0.423184,0 -0.618502,0.203421 -0.672216,0.242505 v 1.956421 c 0.03742,0.03084 0.242519,0.219756 0.634781,0.219756 0.589204,0 0.86102,-0.325549 0.86102,-1.201237 0,-0.854478 -0.263678,-1.217445 -0.823585,-1.217445 m 0.25717,3.227619 c -0.468762,0 -0.740582,-0.122087 -0.929386,-0.26534 v 1.995506 c 0,0 -0.157884,0.105794 -0.558282,0.105794 -0.385753,0 -0.55177,-0.105794 -0.55177,-0.105794 v -5.547009 c 0,0 0.180668,-0.166003 0.46713,-0.166003 0.257168,0 0.379244,0.136712 0.445974,0.362967 0.226243,-0.23438 0.514337,-0.415052 1.072619,-0.415052 1.142606,0 1.723672,0.724268 1.723672,2.04755 0,1.24678 -0.506193,1.987381 -1.669957,1.987381"
       id="path526" />
    <path
       style="fill:#523178;fill-opacity:1;fill-rule:nonzero;stroke:none;stroke-width:0.416676"
       d="m -36.47324,-41.757454 c 0,0.309255 0.188806,0.529011 0.590836,0.529011 0.317387,0 0.483405,-0.143253 0.558279,-0.21163 v -0.680349 c -0.06673,-0.02291 -0.263677,-0.07487 -0.483412,-0.07487 -0.491545,0 -0.665703,0.143254 -0.665703,0.437845 m -0.512708,-1.578788 c -0.24252,-0.06188 -0.408539,-0.362967 -0.356452,-0.696643 0.219729,-0.11229 0.696628,-0.423177 1.534863,-0.423177 1.012397,0 1.595093,0.485013 1.595093,1.337908 v 1.798542 c 0,0.151379 0.04395,0.249048 0.25554,0.249048 0,0 0.09115,0.113921 0.09115,0.302717 0,0 -0.203454,0.348341 -0.618509,0.348341 -0.400397,0 -0.62013,-0.309258 -0.636406,-0.415051 0,0 -0.498058,0.415051 -1.170275,0.415051 -0.688494,0 -1.292349,-0.499721 -1.292349,-1.269573 0,-0.551762 0.294607,-1.140986 1.534868,-1.140986 0.36134,0 0.672216,0.06021 0.724301,0.07487 v -0.301131 c 0,-0.408511 -0.21973,-0.590806 -0.657568,-0.590806 -0.506197,0 -0.80894,0.203421 -1.004255,0.310882"
       id="path528" />
    <path
       style="fill:#523178;fill-opacity:1;fill-rule:nonzero;stroke:none;stroke-width:0.416676"
       d="m -32.345537,-44.288432 v 0.279964 c 0,0 0.25554,-0.445969 0.823589,-0.445969 0.203454,0 0.415047,0.05209 0.566417,0.218088 0.120449,0.271799 0.01466,0.665726 -0.211593,0.763353 0,0 -0.211592,-0.174129 -0.514334,-0.174129 -0.445978,0 -0.634782,0.362967 -0.634782,0.642891 v 2.418682 c 0,0 -0.15137,0.112337 -0.543634,0.112337 -0.385751,0 -0.559908,-0.105829 -0.559908,-0.112337 v -3.70288 c 0,0 0.15137,-0.11392 0.53712,-0.11392 0.35483,0 0.514336,0.09763 0.537125,0.11392"
       id="path530" />
    <path
       style="fill:#523178;fill-opacity:1;fill-rule:nonzero;stroke:none;stroke-width:0.416676"
       d="m -28.982825,-45.354541 v 0.952189 h 0.709648 c 0,0 0.113932,0.105793 0.113932,0.362967 0,0.257131 -0.113932,0.369468 -0.113932,0.369468 h -0.709648 v 1.866878 c 0,0.400425 0.06673,0.574596 0.309251,0.574596 0.203454,0 0.332039,-0.196963 0.332039,-0.196963 0.23438,0.06838 0.371103,0.423177 0.279957,0.725934 -0.06837,0.06834 -0.271818,0.279966 -0.869165,0.279966 -0.839864,0 -1.155628,-0.393926 -1.155628,-1.331448 v -1.918963 h -0.27995 l -0.309254,-0.180671 c 0,-0.340176 0.08301,-0.551764 0.08301,-0.551764 h 0.506194 v -0.952189 c 0,0 0.157884,-0.11392 0.558285,-0.11392 0.38575,0 0.545259,0.11392 0.545259,0.11392"
       id="path532" />
    <path
       style="fill:#523178;fill-opacity:1;fill-rule:nonzero;stroke:none;stroke-width:0.416676"
       d="m -25.25878,-40.585552 v -2.395891 c 0,-0.439469 -0.16602,-0.665682 -0.558279,-0.665682 -0.408538,0 -0.63478,0.288091 -0.703141,0.356425 v 2.705148 c 0,0 -0.151376,0.112337 -0.543635,0.112337 -0.402029,0 -0.559908,-0.112337 -0.559908,-0.112337 v -3.70288 c 0,0 0.157879,-0.11392 0.53712,-0.11392 0.384128,0 0.535497,0.11392 0.535497,0.11392 v 0.400384 c 0.08464,-0.105793 0.43946,-0.566389 1.118189,-0.566389 0.468762,0.0066 0.893574,0.218088 1.088892,0.581056 0.288094,-0.29459 0.620134,-0.581056 1.263051,-0.581056 0.769879,0 1.284209,0.400385 1.284209,1.321616 v 1.821334 c 0,0.166047 0.04395,0.242549 0.257169,0.242549 0,0 0.08952,0.11229 0.08952,0.30109 0,0 -0.166017,0.348342 -0.755227,0.348342 -0.543629,0 -0.703142,-0.317424 -0.703142,-0.317424 v -2.244513 c 0,-0.431302 -0.166018,-0.665682 -0.558279,-0.665682 -0.333668,0 -0.545261,0.188796 -0.688492,0.362967 v 2.698606 c 0,0 -0.151372,0.112337 -0.551772,0.112337 -0.400401,0 -0.551773,-0.112337 -0.551773,-0.112337"
       id="path534" />
    <path
       style="fill:#523178;fill-opacity:1;fill-rule:nonzero;stroke:none;stroke-width:0.416676"
       d="m -18.77425,-42.732396 c 0,-0.529011 -0.159506,-0.914729 -0.63478,-0.914729 -0.468761,0 -0.703142,0.340174 -0.703142,0.914729 z m 0.626647,1.171903 c 0.219731,0.11229 0.377612,0.483387 0.234382,0.747061 0,0 -0.483412,0.393926 -1.39001,0.393926 -1.186553,0 -1.918992,-0.695016 -1.918992,-2.003631 0,-1.367242 0.80731,-2.032924 1.904342,-2.032924 1.095404,0 1.653684,0.673807 1.653684,1.883169 v 0.468761 h -2.447975 c 0.02278,0.50618 0.333667,0.875688 0.869161,0.875688 0.582699,0 1.095408,-0.33205 1.095408,-0.33205"
       id="path536" />
    <path
       style="fill:#523178;fill-opacity:1;fill-rule:nonzero;stroke:none;stroke-width:0.416676"
       d="m -13.666705,-43.132821 v 1.829502 c 0,0.180671 0.05372,0.232756 0.257169,0.232756 0,0 0.09115,0.113919 0.09115,0.302715 0,0 -0.166022,0.348342 -0.755227,0.348342 -0.543636,0 -0.695005,-0.317424 -0.695005,-0.317424 v -2.244513 c 0,-0.437844 -0.174158,-0.665682 -0.568048,-0.665682 -0.40691,0 -0.618505,0.288091 -0.686866,0.354799 v 2.705149 c 0,0 -0.151369,0.113956 -0.545257,0.113956 -0.400404,0 -0.558285,-0.113956 -0.558285,-0.113956 v -3.694756 c 0,0 0.151376,-0.120419 0.537126,-0.120419 0.384121,0 0.543628,0.120419 0.543628,0.120419 v 0.325549 c 0.09115,-0.13671 0.415053,-0.499677 1.126333,-0.499677 0.740574,0 1.253283,0.400385 1.253283,1.32324"
       id="path538" />
    <path
       style="fill:#523178;fill-opacity:1;fill-rule:nonzero;stroke:none;stroke-width:0.416676"
       d="m -11.519841,-45.354541 v 0.952189 h 0.709652 c 0,0 0.113932,0.105793 0.113932,0.362967 0,0.257131 -0.113932,0.369468 -0.113932,0.369468 h -0.709652 v 1.866878 c 0,0.400425 0.06837,0.574596 0.309249,0.574596 0.205086,0 0.333667,-0.196963 0.333667,-0.196963 0.23438,0.06838 0.369475,0.423177 0.279957,0.725934 -0.06837,0.06834 -0.273444,0.279966 -0.869161,0.279966 -0.839865,0 -1.157254,-0.393926 -1.157254,-1.331448 v -1.918963 h -0.279956 l -0.309251,-0.180671 c 0,-0.340176 0.08301,-0.551764 0.08301,-0.551764 h 0.5062 v -0.952189 c 0,0 0.159507,-0.11392 0.559907,-0.11392 0.384123,0 0.543635,0.11392 0.543635,0.11392"
       id="path540" />
    <path
       style="fill:#523178;fill-opacity:1;fill-rule:nonzero;stroke:none;stroke-width:0.416676"
       d="m -48.646384,-35.985817 c -0.551774,0 -0.792663,0.444346 -0.792663,1.207697 0,0.763394 0.240889,1.209362 0.792663,1.209362 0.559905,0 0.792661,-0.445968 0.792661,-1.209362 0,-0.763351 -0.232756,-1.207697 -0.792661,-1.207697 m 0,3.225995 c -1.178413,0 -1.896205,-0.665724 -1.896205,-2.018298 0,-1.352574 0.717792,-2.016632 1.896205,-2.016632 1.178415,0 1.904344,0.664058 1.904344,2.016632 0,1.352574 -0.725929,2.018298 -1.904344,2.018298"
       id="path542" />
    <path
       style="fill:#523178;fill-opacity:1;fill-rule:nonzero;stroke:none;stroke-width:0.416676"
       d="m -45.026507,-36.742667 h 0.55991 c 0,0 0.105794,0.107423 0.105794,0.362967 0,0.257172 -0.105794,0.371093 -0.105794,0.371093 h -0.55991 v 3.08274 c 0,0 -0.151369,0.113956 -0.551773,0.113956 -0.377612,0 -0.551766,-0.105794 -0.551766,-0.113956 v -3.120159 l -0.452486,-0.136752 c 0,-0.346677 0.07487,-0.559889 0.07487,-0.559889 h 0.377612 v -0.406927 c 0,-0.937523 0.317385,-1.331408 1.155624,-1.331408 0.62013,0 0.831726,0.205089 0.869162,0.257174 0.09115,0.29459 -0.06673,0.657557 -0.271816,0.719432 0,0 -0.120446,-0.166043 -0.325527,-0.166043 -0.249031,0 -0.323905,0.18067 -0.323905,0.581055 z m 0,0"
       id="path544" />
    <path
       style="fill:#523178;fill-opacity:1;fill-rule:nonzero;stroke:none;stroke-width:0.416676"
       d="m -41.732156,-32.932368 v -5.048955 c 0,0 0.16602,-0.120421 0.581067,-0.120421 0.416675,0 0.582698,0.120421 0.582698,0.120421 v 1.958048 h 1.669958 v -1.958048 c 0,0 0.166024,-0.120421 0.574561,-0.120421 0.423189,0 0.589206,0.120421 0.589206,0.120421 v 5.048955 c 0,0 -0.166017,0.120461 -0.574556,0.120461 -0.423187,0 -0.589211,-0.120461 -0.589211,-0.120461 v -2.246137 h -1.669958 v 2.246137 c 0,0 -0.166023,0.120461 -0.574558,0.120461 -0.41505,0 -0.589207,-0.120461 -0.589207,-0.120461"
       id="path546" />
    <path
       style="fill:#523178;fill-opacity:1;fill-rule:nonzero;stroke:none;stroke-width:0.416676"
       d="m -34.749563,-35.07271 c 0,-0.528973 -0.159514,-0.913107 -0.634785,-0.913107 -0.468761,0 -0.703141,0.340175 -0.703141,0.913107 z m 0.628268,1.171902 c 0.218105,0.113919 0.375983,0.483387 0.232752,0.748725 0,0 -0.483408,0.392261 -1.390009,0.392261 -1.186549,0 -1.91899,-0.695017 -1.91899,-2.002007 0,-1.367241 0.807314,-2.032923 1.904342,-2.032923 1.095403,0 1.653688,0.672224 1.653688,1.881544 v 0.468762 h -2.447977 c 0.02278,0.506178 0.333667,0.875688 0.869164,0.875688 0.582692,0 1.09703,-0.33205 1.09703,-0.33205"
       id="path548" />
    <path
       style="fill:#523178;fill-opacity:1;fill-rule:nonzero;stroke:none;stroke-width:0.416676"
       d="m -32.158358,-34.096146 c 0,0.309257 0.188804,0.527388 0.590833,0.527388 0.317388,0 0.483412,-0.143254 0.558282,-0.209964 v -0.680391 c -0.06673,-0.02291 -0.263675,-0.07646 -0.483412,-0.07646 -0.491548,0 -0.665703,0.143212 -0.665703,0.439426 m -0.512706,-1.580416 c -0.242518,-0.06025 -0.408541,-0.362967 -0.356456,-0.695017 0.219731,-0.11392 0.69663,-0.423176 1.534865,-0.423176 1.012397,0 1.595095,0.483385 1.595095,1.337906 v 1.798543 c 0,0.149753 0.04395,0.249048 0.255538,0.249048 0,0 0.09115,0.11392 0.09115,0.302715 0,0 -0.203453,0.346717 -0.618504,0.346717 -0.400397,0 -0.620134,-0.309257 -0.63641,-0.415051 0,0 -0.498056,0.415051 -1.170272,0.415051 -0.688497,0 -1.292352,-0.498054 -1.292352,-1.269572 0,-0.551764 0.294602,-1.140985 1.53487,-1.140985 0.361334,0 0.672215,0.06021 0.724299,0.07487 v -0.301127 c 0,-0.40851 -0.219734,-0.589181 -0.657569,-0.589181 -0.506197,0 -0.808935,0.203464 -1.004252,0.309258"
       id="path550" />
    <path
       style="fill:#523178;fill-opacity:1;fill-rule:nonzero;stroke:none;stroke-width:0.416676"
       d="m -29.059324,-33.077205 v -5.289878 c 0,0 0.159507,-0.11392 0.551766,-0.11392 0.400403,0 0.55991,0.11392 0.55991,0.11392 v 4.723448 c 0,0.166003 0.04395,0.23438 0.263681,0.23438 0,0 0.08301,0.11392 0.08301,0.302716 0,0 -0.188811,0.346717 -0.763368,0.346717 -0.528983,0 -0.695,-0.317383 -0.695,-0.317383"
       id="path552" />
    <path
       style="fill:#523178;fill-opacity:1;fill-rule:nonzero;stroke:none;stroke-width:0.416676"
       d="m -25.771486,-37.693234 v 0.950567 h 0.709654 c 0,0 0.113933,0.105793 0.113933,0.362967 0,0.257172 -0.113933,0.371093 -0.113933,0.371093 h -0.709654 v 1.865294 c 0,0.40201 0.06674,0.574555 0.309251,0.574555 0.203455,0 0.33204,-0.195339 0.33204,-0.195339 0.23438,0.06838 0.371102,0.421553 0.279957,0.724309 -0.06836,0.06838 -0.271819,0.279966 -0.869165,0.279966 -0.838236,0 -1.155628,-0.392261 -1.155628,-1.329782 v -1.919003 h -0.279951 l -0.309254,-0.182298 c 0,-0.33855 0.08301,-0.551762 0.08301,-0.551762 h 0.506195 v -0.950567 c 0,0 0.157885,-0.113919 0.558285,-0.113919 0.385751,0 0.54526,0.113919 0.54526,0.113919"
       id="path554" />
    <path
       style="fill:#523178;fill-opacity:1;fill-rule:nonzero;stroke:none;stroke-width:0.416676"
       d="m -20.904831,-35.473095 v 1.821292 c 0,0.167671 0.04395,0.242548 0.255536,0.242548 0,0 0.09115,0.11392 0.09115,0.302716 0,0 -0.188808,0.346717 -0.763366,0.346717 -0.528981,0 -0.686866,-0.317383 -0.686866,-0.317383 v -2.244553 c 0,-0.429678 -0.16602,-0.664059 -0.559907,-0.664059 -0.423185,0 -0.634784,0.294591 -0.695004,0.354801 v 2.705149 c 0,0 -0.151373,0.113956 -0.543634,0.113956 -0.400398,0 -0.566418,-0.113956 -0.566418,-0.113956 v -5.441216 c 0,0 0.157882,-0.11392 0.543632,-0.11392 0.377615,0 0.543632,0.11392 0.543632,0.11392 v 1.995508 c 0.226242,-0.211589 0.514337,-0.423177 1.072616,-0.423177 0.817078,0 1.308628,0.400384 1.308628,1.321657"
       id="path556" />
    <path
       style="fill:#523178;fill-opacity:1;fill-rule:nonzero;stroke:none;stroke-width:0.416676"
       d="m -53.280284,-29.288072 c -0.130211,0 -0.23438,-0.107423 -0.23438,-0.234381 v -19.442216 c 0,-0.130212 0.104164,-0.236007 0.23438,-0.236007 0.130212,0 0.23601,0.105794 0.23601,0.236007 v 19.442216 c 0,0.126962 -0.105794,0.234381 -0.23601,0.234381"
       id="path558" />
    <path
       style="fill:#523178;fill-opacity:1;fill-rule:nonzero;stroke:none;stroke-width:0.416676"
       d="m -64.628215,-30.538104 c 0,0 -0.0065,-0.0084 -0.0065,-0.02583 0,-0.01792 0.0065,-0.02583 0.0065,-0.02583 h 0.34018 c 0,0 0.0065,0.0084 0.0065,0.02583 0,0.01792 -0.0065,0.02583 -0.0065,0.02583 h -0.133466 v 0.405303 c 0,0 -0.01146,0.0066 -0.03579,0.0066 -0.02604,0 -0.03579,-0.0066 -0.03579,-0.0066 v -0.405303 z m 0,0"
       id="path560" />
    <path
       style="fill:#523178;fill-opacity:1;fill-rule:nonzero;stroke:none;stroke-width:0.416676"
       d="m -63.96739,-30.153968 c -0.0048,0.005 -0.01462,0.0079 -0.02929,0.0079 -0.01134,0 -0.0228,0 -0.02929,-0.0079 l -0.102546,-0.258798 c -0.0065,-0.01459 -0.01629,-0.04233 -0.01629,-0.04558 0,0 -0.0033,0.0375 -0.0048,0.04884 l -0.01792,0.276715 c 0,0 -0.0098,0.0066 -0.03579,0.0066 -0.02604,0 -0.03745,-0.0066 -0.03745,-0.0066 l 0.03745,-0.449261 c 0,0 0.0098,-0.0084 0.03417,-0.0084 0.02605,0 0.03742,0.0084 0.03742,0.0084 l 0.118819,0.302757 0.01629,0.04883 c 0,0 0.01134,-0.03417 0.01629,-0.04883 l 0.120444,-0.302757 c 0,0 0.0098,-0.0084 0.03745,-0.0084 0.02441,0 0.03417,0.0084 0.03417,0.0084 l 0.03579,0.449261 c 0,0 -0.01146,0.0066 -0.03579,0.0066 -0.02604,0 -0.03579,-0.0066 -0.03579,-0.0066 l -0.01954,-0.276715 -0.0033,-0.05046 c 0,0 -0.01134,0.03584 -0.01629,0.04558 z m 0,0"
       id="path562" />
    <path
       style="fill:#523178;fill-opacity:1;fill-rule:nonzero;stroke:none;stroke-width:0.416676"
       d="m -69.239326,-46.572029 1.170275,1.86367 v -1.858753 c 0,0 0.131841,-0.09279 0.449232,-0.09279 0.32227,0 0.452481,0.09279 0.452481,0.09279 v 3.227577 c 0,0 -0.126953,0.09279 -0.447598,0.09279 -0.312507,0 -0.439464,-0.083 -0.439464,-0.083 l -1.173534,-1.862046 v 1.852252 c 0,0 -0.131835,0.09279 -0.45411,0.09279 -0.312507,0 -0.444349,-0.09279 -0.444349,-0.09279 v -3.227577 c 0,0 0.122075,-0.09279 0.449233,-0.09279 0.312507,0 0.437834,0.08788 0.437834,0.08788"
       id="path564" />
    <path
       style="fill:#523178;fill-opacity:1;fill-rule:nonzero;stroke:none;stroke-width:0.416676"
       d="m -64.777955,-44.729527 h -0.852887 v 0.82523 h 1.23213 c 0,0 0.09278,0.102546 0.09278,0.325506 0,0.229507 -0.09278,0.33205 -0.09278,0.33205 h -2.133844 v -3.413166 h 2.036183 c 0,0 0.09766,0.102546 0.09766,0.332051 0,0.224588 -0.09766,0.332007 -0.09766,0.332007 h -1.134469 v 0.603891 h 0.852887 c 0,0 0.09115,0.107423 0.09115,0.332008 0,0.234379 -0.09115,0.330423 -0.09115,0.330423"
       id="path566" />
    <path
       style="fill:#523178;fill-opacity:1;fill-rule:nonzero;stroke:none;stroke-width:0.416676"
       d="m -63.208909,-43.339535 -0.921243,-3.227577 c 0,0 0.136719,-0.09279 0.452481,-0.09279 0.322274,0 0.449232,0.09279 0.449232,0.09279 l 0.462248,1.638998 c 0.03417,0.122086 0.04883,0.213255 0.06349,0.266964 0,-0.01459 0.02604,-0.149753 0.05371,-0.263674 l 0.405284,-1.642288 c 0,0 0.156254,-0.09279 0.374359,-0.09279 0.209963,0 0.356454,0.09279 0.356454,0.09279 l 0.385752,1.638998 0.06347,0.266964 c 0,-0.04396 0.02929,-0.164421 0.0586,-0.263674 l 0.4769,-1.642288 c 0.0048,0 0.131837,-0.09279 0.444343,-0.09279 0.315766,0 0.452486,0.09279 0.452486,0.09279 l -0.935893,3.227577 c 0,0 -0.131841,0.08793 -0.429698,0.09279 -0.345061,0 -0.467137,-0.09279 -0.467137,-0.09279 l -0.366214,-1.497411 c -0.02766,-0.110671 -0.04883,-0.232755 -0.05209,-0.257173 l -0.06023,0.257173 -0.364592,1.497411 c 0,0 -0.126957,0.09279 -0.449231,0.09279 -0.315762,0 -0.452486,-0.09279 -0.452486,-0.09279"
       id="path568" />
    <path
       style="fill:#523178;fill-opacity:1;fill-rule:nonzero;stroke:none;stroke-width:0.416676"
       d="m -69.520907,-42.330385 0.398772,0.701517 c 0.136721,0.239255 0.209964,0.507845 0.219731,0.540387 0.0098,-0.03251 0.07813,-0.296215 0.219733,-0.540387 l 0.408536,-0.701517 c 0,0 0.122074,-0.08788 0.419935,-0.08788 0.336921,0 0.478524,0.11229 0.478524,0.11229 l -1.077498,1.862045 v 1.344407 c 0,0 -0.126956,0.09442 -0.44923,0.09442 -0.317391,0 -0.442718,-0.09442 -0.442718,-0.09442 v -1.359074 l -1.077503,-1.847378 c 0,0 0.146492,-0.11229 0.481783,-0.11229 0.288095,0 0.419935,0.08788 0.419935,0.08788"
       id="path570" />
    <path
       style="fill:#523178;fill-opacity:1;fill-rule:nonzero;stroke:none;stroke-width:0.416676"
       d="m -65.743149,-39.630113 c 0.486665,0 0.750343,-0.439468 0.750343,-1.077484 0,-0.638057 -0.263678,-1.082401 -0.750343,-1.082401 -0.488292,0 -0.750344,0.444344 -0.750344,1.082401 0,0.638016 0.262052,1.077484 0.750344,1.077484 m 0,0.657558 c -1.150745,0 -1.653686,-0.672224 -1.653686,-1.735042 0,-1.062859 0.502941,-1.744834 1.653686,-1.744834 1.145861,0 1.652061,0.681975 1.652061,1.744834 0,1.062818 -0.5062,1.735042 -1.652061,1.735042"
       id="path572" />
    <path
       style="fill:#523178;fill-opacity:1;fill-rule:nonzero;stroke:none;stroke-width:0.416676"
       d="m -62.453683,-41.789998 c -0.146487,0 -0.252281,0.02916 -0.252281,0.02916 v 0.848021 h 0.242518 c 0.354825,0 0.493175,-0.247423 0.493175,-0.437844 0,-0.249047 -0.170904,-0.439469 -0.483412,-0.439469 m -0.252281,2.690481 c 0,0 -0.131841,0.09442 -0.454115,0.09442 -0.317391,0 -0.444344,-0.09442 -0.444344,-0.09442 v -3.182034 c 0,0 0.366217,-0.170878 1.038433,-0.170878 1.018909,0 1.492549,0.390634 1.492549,1.072608 0,0.672225 -0.517588,0.945647 -0.581069,0.950523 l 0.789407,1.311907 c -0.09603,0.06183 -0.364592,0.11229 -0.545259,0.11229 -0.234381,0 -0.418306,-0.08463 -0.418306,-0.08463 l -0.595715,-1.036817 c -0.03417,-0.07325 -0.08301,-0.12696 -0.164391,-0.12696 h -0.117192 z m 0,0"
       id="path574" />
    <path
       style="fill:#523178;fill-opacity:1;fill-rule:nonzero;stroke:none;stroke-width:0.416676"
       d="m -57.41287,-39.122309 c 0,0 -0.229496,0.115586 -0.600603,0.115586 -0.31576,0 -0.447598,-0.083 -0.447598,-0.083 l -1.155627,-1.56908 v 1.559288 c 0,0 -0.122074,0.09279 -0.442719,0.09279 -0.322275,0 -0.454115,-0.09279 -0.454115,-0.09279 v -3.225996 c 0,0 0.13184,-0.09276 0.454115,-0.09276 0.315761,0 0.442719,0.09276 0.442719,0.09276 v 1.515371 l 1.116563,-1.520245 c 0,0 0.131838,-0.08788 0.4476,-0.08788 0.366221,0 0.512708,0.122086 0.512708,0.122086 l -1.092147,1.486036 z m 0,0"
       id="path576" />
    <path
       style="fill:#523178;fill-opacity:1;fill-rule:nonzero;stroke:none;stroke-width:0.416676"
       d="m -67.815136,-37.943863 c 0.06347,0.312507 -0.102546,0.561513 -0.288095,0.62339 -0.180667,-0.120461 -0.467131,-0.227882 -0.769877,-0.227882 -0.305995,0 -0.4769,0.117168 -0.4769,0.281591 0,0.156254 0.139979,0.209964 0.515964,0.333633 l 0.468762,0.149754 c 0.501315,0.166045 0.813823,0.419927 0.813823,0.955439 0,0.618516 -0.410168,1.097026 -1.404655,1.097026 -0.696633,0 -1.126331,-0.23438 -1.282585,-0.390633 -0.04883,-0.227881 0.07813,-0.51597 0.260423,-0.608723 0.154624,0.117168 0.618507,0.3418 1.090523,0.3418 0.283209,0 0.439464,-0.102546 0.439464,-0.28809 0,-0.131838 -0.08301,-0.214881 -0.278329,-0.27834 l -0.784525,-0.239256 c -0.419932,-0.130211 -0.735694,-0.43297 -0.735694,-0.926147 0,-0.701519 0.476899,-1.092153 1.359084,-1.092153 0.561534,0 0.887062,0.153004 1.072617,0.268591"
       id="path578" />
    <path
       style="fill:#523178;fill-opacity:1;fill-rule:nonzero;stroke:none;stroke-width:0.416676"
       d="m -67.308941,-37.514187 c 0,0 -0.09278,-0.09767 -0.09278,-0.33205 0,-0.224588 0.09278,-0.332008 0.09278,-0.332008 h 2.648176 c 0,0 0.09278,0.102546 0.09278,0.332008 0,0.229505 -0.09278,0.33205 -0.09278,0.33205 h -0.878929 v 2.656315 c 0,0 -0.12533,0.09279 -0.44272,0.09279 -0.327153,0 -0.457365,-0.09279 -0.457365,-0.09279 v -2.656315 z m 0,0"
       id="path580" />
    <path
       style="fill:#523178;fill-opacity:1;fill-rule:nonzero;stroke:none;stroke-width:0.416676"
       d="m -63.54583,-36.067193 h 0.727556 l -0.244144,-0.584347 c -0.04883,-0.117168 -0.112302,-0.356426 -0.117192,-0.380843 -0.0098,0.02458 -0.08301,0.263673 -0.126957,0.380843 z m 0.804057,-2.023175 1.31676,3.217871 c 0,0 -0.131835,0.107424 -0.463877,0.107424 -0.305995,0 -0.42807,-0.08792 -0.42807,-0.08792 l -0.239264,-0.561514 h -1.251658 l -0.226239,0.561514 c 0,0 -0.125332,0.08792 -0.428073,0.08792 -0.330412,0 -0.472015,-0.107424 -0.472015,-0.107424 l 1.315135,-3.217871 c 0,0 0.122074,-0.08626 0.439465,-0.08626 0.317391,0 0.437836,0.08626 0.437836,0.08626"
       id="path582" />
    <path
       style="fill:#523178;fill-opacity:1;fill-rule:nonzero;stroke:none;stroke-width:0.416676"
       d="m -61.693572,-37.514187 c 0,0 -0.09278,-0.09767 -0.09278,-0.33205 0,-0.224588 0.09278,-0.332008 0.09278,-0.332008 h 2.646549 c 0,0 0.09278,0.102546 0.09278,0.332008 0,0.229505 -0.09278,0.33205 -0.09278,0.33205 h -0.8773 v 2.656315 c 0,0 -0.125328,0.09279 -0.442718,0.09279 -0.327158,0 -0.459,-0.09279 -0.459,-0.09279 v -2.656315 z m 0,0"
       id="path584" />
    <path
       style="fill:#523178;fill-opacity:1;fill-rule:nonzero;stroke:none;stroke-width:0.416676"
       d="m -56.789484,-36.247863 h -0.852882 v 0.825186 h 1.232123 c 0,0 0.0944,0.102546 0.0944,0.325549 0,0.229505 -0.0944,0.33205 -0.0944,0.33205 h -2.133837 v -3.413167 h 2.037806 c 0,0 0.09603,0.102546 0.09603,0.332008 0,0.224631 -0.09603,0.33205 -0.09603,0.33205 h -1.136092 v 0.603849 h 0.852882 c 0,0 0.09278,0.107423 0.09278,0.33205 0,0.23438 -0.09278,0.330425 -0.09278,0.330425"
       id="path586" />
    <path
       style="fill:#523178;fill-opacity:1;fill-rule:nonzero;stroke:none;stroke-width:0.416676"
       d="m -69.507885,-49.238092 c -0.135096,0.01625 -0.263682,0.03251 -0.348318,0.03251 -0.315761,0 -0.633152,0.01122 -0.950543,0.01792 -0.633152,0.01625 -1.289093,0.03251 -1.918992,-0.0041 l -0.06347,-0.0041 c -0.338553,-0.01958 -0.507828,-0.02916 -0.865912,0.105794 -0.271815,0.100916 -0.561535,0.271799 -0.784523,0.408509 -0.275073,0.169297 -0.501316,0.382509 -0.719416,0.587598 -0.04558,0.04233 -0.09115,0.08463 -0.136725,0.126962 -0.07324,0.06671 -0.166021,0.141587 -0.263677,0.218088 -0.294604,0.236005 -0.62827,0.501303 -0.764995,0.843144 -0.02929,0.06996 -0.04067,0.152962 -0.05045,0.23109 -0.0065,0.04233 -0.01467,0.10583 -0.02441,0.140003 -0.133466,0.09437 -0.247403,0.200214 -0.356451,0.30109 -0.04883,0.04558 -0.09929,0.09279 -0.153,0.13838 -0.126957,0.110671 -0.288094,0.196921 -0.457369,0.286465 -0.122073,0.06508 -0.249026,0.13346 -0.367847,0.213213 l -0.05046,0.03251 c -0.139978,0.08954 -0.33204,0.209963 -0.393891,0.39876 -0.07487,0.22788 0.06023,0.626682 0.305999,0.7406 0.152998,0.07001 0.286465,0.01792 0.369476,-0.02125 0.0065,0.01958 0.01134,0.03917 0.01134,0.05534 0.0017,0.0765 -0.05534,0.156254 -0.151369,0.27834 -0.120446,0.15463 -0.271816,0.346675 -0.253916,0.620139 0.0048,0.096 0.03579,0.201797 0.06999,0.323884 0.05046,0.175795 0.13347,0.467136 0.03904,0.509471 -0.0228,0.0096 -0.09766,0.0066 -0.148117,0.0041 -0.141602,-0.0066 -0.356449,-0.01792 -0.517585,0.148124 -0.08952,0.09113 -0.201831,0.164379 -0.330413,0.244132 l -0.05046,0.02916 c -0.118814,0.07326 -0.26856,0.164377 -0.372728,0.306007 -0.02441,0.03417 -0.04232,0.06671 -0.06023,0.09767 -0.0048,0.0079 -0.0098,0.01459 -0.01301,0.02291 -0.05697,0.01122 -0.112302,0.01958 -0.167646,0.0275 -0.113931,0.01792 -0.231126,0.03584 -0.354824,0.07487 -0.05697,0.01792 -0.113932,0.03917 -0.174159,0.06025 -0.133469,0.04884 -0.27019,0.09925 -0.379242,0.09437 -0.09766,-0.0041 -0.193688,-0.01291 -0.289719,-0.02291 -0.213222,-0.01958 -0.434581,-0.04083 -0.670591,-0.0096 -0.144859,0.01958 -0.263677,0.06183 -0.367848,0.0993 -0.209966,0.07326 -0.258792,0.08626 -0.379242,-0.02458 -0.236005,-0.216463 -0.390634,-0.27509 -0.703142,-0.333675 l -0.768246,-0.146502 c -0.13835,-0.02583 -0.263678,0 -0.366218,0.01792 -0.06674,0.01459 -0.125327,0.02583 -0.16765,0.01958 -0.722671,-0.105794 -1.513708,0.02583 -2.491917,0.415052 -0.325529,0.130211 -0.421562,0.260422 -0.390635,0.542012 0.0082,0.06671 0.01629,0.141587 0,0.258798 -0.01629,0.11555 -0.02117,0.263673 0.07813,0.374343 0.09766,0.110671 0.229498,0.107423 0.301113,0.107423 0.0228,0 0.05209,0 0.06186,0.0041 0.0098,0.0066 0.01467,0.01004 0.01467,0.01004 0.0098,0.0275 -0.0082,0.120419 -0.01629,0.169253 -0.0065,0.02916 -0.01134,0.05697 -0.01462,0.08463 -0.04232,0.276714 0.01954,0.410177 0.09115,0.564805 0.01462,0.03251 0.03254,0.07001 0.05046,0.11392 0.03905,0.09117 0.04395,0.105793 -0.200201,0.244172 -0.107423,0.0602 -0.229497,0.12858 -0.323899,0.227874 -0.08952,0.09112 -0.148116,0.195296 -0.196946,0.288089 -0.0472,0.08463 -0.08627,0.159504 -0.139979,0.203421 -0.07487,0.0635 -0.182296,0.118837 -0.297857,0.180673 -0.133465,0.07001 -0.270189,0.143252 -0.390634,0.240921 -0.0879,0.07321 -0.167647,0.149712 -0.242518,0.224589 -0.102545,0.100916 -0.198573,0.195338 -0.30437,0.265298 -0.04072,0.02583 -0.117192,0.06025 -0.190435,0.09279 -0.198572,0.08788 -0.42156,0.187172 -0.537121,0.371092 -0.02441,0.03917 -0.03745,0.08463 -0.03745,0.130217 l 0.0017,0.872442 c 0,0.164379 0.01792,0.346676 0.152998,0.467136 0.13835,0.122046 0.30925,0.104163 0.462249,0.08625 0.06674,-0.0084 0.136725,-0.01625 0.216477,-0.01625 l 12.484025,0.0096 c 0.379242,0 0.742205,0.0084 1.046575,0.113921 0.04071,0.01459 0.100916,0.083 0.139978,0.126961 0.03742,0.04233 0.06999,0.07813 0.09929,0.102546 0.09604,0.07975 0.2002,0.122086 0.289719,0.15788 0.07324,0.02916 0.136724,0.05533 0.175788,0.09442 0.07975,0.07975 0.08138,0.205048 0.07975,0.40201 -0.0017,0.06513 -0.0017,0.128587 0.0017,0.190422 0.02441,0.475304 0.21322,0.667349 0.429697,0.890355 0.02929,0.02916 0.06023,0.06021 0.09278,0.09437 0.156253,0.164379 0.351571,0.180672 0.480158,0.190421 0.02929,0.0041 0.06836,0.005 0.08464,0.0066 0.0228,0.03584 0.05697,0.11229 0.06349,0.143213 0.04232,0.214838 0.30437,0.364592 0.698258,0.568054 0.06023,0.03084 0.110673,0.05697 0.139979,0.07326 l 0.125327,0.07813 c 0.356455,0.218089 0.714535,0.436219 1.070989,0.654308 0.05534,0.03417 0.115562,0.06508 0.174158,0.09605 0.123699,0.06671 0.239264,0.126962 0.309253,0.211589 0.02117,0.02916 0.0228,0.03084 0.01134,0.159503 -0.01301,0.143212 -0.03579,0.289716 -0.07487,0.447594 -0.0033,0.01958 -0.0098,0.03917 -0.01629,0.05859 -0.01301,0.04558 -0.03092,0.100916 -0.03742,0.167671 -0.0098,0.07975 -0.01629,0.167629 0.0017,0.268548 -0.02604,0.01792 -0.05697,0.04083 -0.08627,0.07487 -0.02604,0.02916 -0.05046,0.06346 -0.07324,0.09605 l -0.0228,0.03251 c -0.06837,0.0993 -0.09441,0.208339 -0.07161,0.306008 0.01954,0.08463 0.07324,0.154628 0.149742,0.195296 0.05209,0.02916 0.104164,0.0375 0.154627,0.0375 0.06998,0 0.13672,-0.01958 0.183921,-0.03417 l 0.01955,-0.005 c 0.162763,-0.0375 0.327153,-0.06838 0.491545,-0.09767 l 0.188809,-0.03584 c 0.27019,-0.04884 0.548517,-0.0993 0.823586,-0.162754 0.07976,-0.01958 0.180671,-0.05371 0.297862,-0.09279 0.148111,-0.05046 0.457364,-0.156254 0.53712,-0.146461 0.185551,0.06021 0.353195,-0.01459 0.486666,-0.07487 0.08952,-0.04083 0.175783,-0.07975 0.263676,-0.08467 0.309255,-0.01122 0.551773,-0.05209 0.787779,-0.128585 0.138354,-0.04555 0.257169,-0.112291 0.372733,-0.175755 0.112303,-0.0635 0.218101,-0.122087 0.322271,-0.148128 0.09115,-0.02291 0.180671,-0.04884 0.27182,-0.07487 0.201824,-0.05697 0.402025,-0.12042 0.600596,-0.183922 l 0.263682,-0.083 c 0.278323,-0.08463 0.854512,-0.262049 0.859395,-0.690143 0.0017,-0.113919 -0.07487,-0.213212 -0.185555,-0.242504 -0.18392,-0.04721 -0.364591,-0.0275 -0.524099,-0.0096 -0.157883,0.01625 -0.294602,0.03084 -0.411793,-0.01459 -0.04232,-0.01625 -0.06673,-0.03584 -0.09929,-0.06021 -0.100916,-0.07813 -0.216476,-0.149752 -0.441094,-0.115585 -0.265302,0.04083 -0.502941,0.123711 -0.732438,0.206713 -0.289719,0.102546 -0.563163,0.200213 -0.870788,0.200213 -0.695004,0 -1.233754,0.06513 -1.746462,0.211588 -0.136721,0.03917 -0.265307,0.07975 -0.387381,0.123712 0.0065,-0.02125 0.01146,-0.04396 0.01467,-0.06675 0.02441,-0.154629 -0.04395,-0.283215 -0.102533,-0.382468 0.441089,-0.242547 0.60711,-0.364592 0.644544,-0.527387 0.01792,-0.0765 0.0033,-0.157878 -0.04067,-0.221339 -0.190438,-0.273464 -0.131841,-0.750352 -0.07976,-1.173529 0.01792,-0.144877 0.03579,-0.283214 0.04395,-0.41505 0.0082,-0.135087 -0.09604,-0.252299 -0.231128,-0.260424 -0.138348,-0.0079 -0.253909,0.09605 -0.262052,0.23113 -0.0065,0.117169 -0.0228,0.247382 -0.04067,0.384134 -0.05534,0.44597 -0.117191,0.944023 0.06837,1.349284 -0.1237,0.08305 -0.328782,0.195337 -0.408539,0.239297 -0.0586,0.03084 -0.102534,0.05697 -0.1237,0.06833 -0.05534,0.03584 -0.09441,0.08954 -0.109053,0.153004 -0.03905,0.16438 0.04232,0.304382 0.102545,0.405301 0.01467,0.02583 0.03745,0.06183 0.0472,0.08463 -0.013,0.02583 -0.0472,0.05858 -0.09766,0.104165 -0.05046,0.04721 -0.107425,0.0993 -0.156255,0.16763 -0.02604,0.03584 -0.04883,0.07487 -0.07,0.113955 0.013,-0.144879 0.0228,-0.307633 -0.122074,-0.488305 -0.131841,-0.164379 -0.307624,-0.257172 -0.463878,-0.33855 -0.05046,-0.02583 -0.09929,-0.05209 -0.146486,-0.08138 -0.358085,-0.218129 -0.71291,-0.436219 -1.070993,-0.652681 l -0.125329,-0.07813 c -0.03579,-0.02125 -0.09603,-0.05371 -0.169275,-0.09117 -0.105793,-0.05534 -0.375984,-0.195297 -0.452481,-0.268548 -0.03092,-0.105794 -0.113931,-0.309257 -0.236009,-0.400385 -0.113932,-0.08468 -0.242519,-0.09442 -0.345063,-0.102545 -0.08464,-0.0084 -0.138349,-0.01291 -0.162762,-0.03917 -0.03417,-0.03584 -0.06674,-0.06838 -0.09766,-0.100915 -0.193688,-0.196922 -0.275069,-0.279965 -0.289719,-0.568056 -0.0033,-0.05209 -0.0017,-0.105794 -0.0017,-0.161128 0.0033,-0.232756 0.0065,-0.525722 -0.22299,-0.755227 -0.109053,-0.110673 -0.237634,-0.161129 -0.340178,-0.203464 -0.06673,-0.02583 -0.122075,-0.05046 -0.157879,-0.07813 -0.01467,-0.01291 -0.02929,-0.03084 -0.04558,-0.05046 -0.07487,-0.08463 -0.187178,-0.21159 -0.34994,-0.268548 -0.375976,-0.128588 -0.800791,-0.139963 -1.206071,-0.139963 l -12.485654,-0.01004 c -0.107424,0 -0.200202,0.01004 -0.27507,0.01958 -0.01792,0 -0.04071,0.0041 -0.06186,0.0066 0,-0.01958 -0.0017,-0.04229 -0.0017,-0.06996 l -0.0017,-0.778018 c 0.06837,-0.05046 0.201826,-0.109042 0.279953,-0.143254 0.09604,-0.0423 0.18718,-0.08463 0.263677,-0.133461 0.148115,-0.09591 0.265305,-0.213124 0.379242,-0.325418 0.06999,-0.07001 0.138349,-0.136754 0.206708,-0.193715 0.08301,-0.06671 0.193692,-0.125335 0.310884,-0.18717 0.131836,-0.07001 0.270189,-0.143211 0.385751,-0.239256 0.123699,-0.104163 0.193688,-0.23113 0.253911,-0.34505 0.03905,-0.07001 0.07487,-0.138378 0.117191,-0.180671 0.04558,-0.04721 0.130212,-0.09442 0.211597,-0.140004 0.21973,-0.125294 0.629898,-0.3548 0.415047,-0.865895 -0.02117,-0.05046 -0.04071,-0.09275 -0.0586,-0.131836 -0.0586,-0.126962 -0.06999,-0.153004 -0.05046,-0.28159 0.0033,-0.02291 0.0065,-0.04558 0.01146,-0.06834 0.03092,-0.169296 0.09766,-0.520845 -0.253913,-0.706433 -0.06186,-0.03251 -0.120445,-0.04716 -0.17253,-0.05534 0.01134,-0.135087 0.0017,-0.232756 -0.0065,-0.30109 0.01954,-0.0084 0.04558,-0.01958 0.08139,-0.03417 0.893576,-0.354801 1.604855,-0.478511 2.238009,-0.384094 0.126956,0.01625 0.242517,-0.0066 0.335294,-0.02458 0.07161,-0.01459 0.133467,-0.02583 0.179039,-0.01792 l 0.766623,0.146503 c 0.250656,0.04721 0.312507,0.07487 0.463877,0.213213 0.343433,0.314133 0.651058,0.205089 0.875671,0.125338 0.08952,-0.03251 0.174158,-0.06188 0.26856,-0.07487 0.179042,-0.02457 0.364593,-0.0066 0.558284,0.01292 0.105794,0.0096 0.211593,0.01958 0.317391,0.02292 0.205082,0.01004 0.398773,-0.06183 0.569673,-0.125337 0.05046,-0.01792 0.100916,-0.03584 0.149745,-0.05209 0.08952,-0.0275 0.182297,-0.0423 0.281582,-0.05696 0.06999,-0.0096 0.139979,-0.02125 0.209968,-0.03584 0.203454,-0.04233 0.279952,-0.179047 0.325528,-0.258798 0.0098,-0.01625 0.01954,-0.03417 0.03092,-0.04884 0.04558,-0.06345 0.139978,-0.120461 0.231127,-0.177421 l 0.05534,-0.03251 c 0.149745,-0.09442 0.294607,-0.187171 0.416675,-0.314131 0.02117,-0.0096 0.09766,-0.0066 0.143234,-0.0041 0.109053,0.0066 0.242523,0.01291 0.372734,-0.04396 0.488291,-0.214838 0.325528,-0.78777 0.237635,-1.097026 -0.02441,-0.083 -0.05046,-0.177421 -0.05372,-0.219714 -0.0048,-0.08305 0.05372,-0.161171 0.15137,-0.286466 0.117192,-0.148127 0.26368,-0.335298 0.257168,-0.595722 -0.0065,-0.21813 -0.144862,-0.537137 -0.432952,-0.561555 -0.102546,-0.0079 -0.187179,0.0275 -0.247401,0.05696 -0.013,-0.03417 -0.02441,-0.07326 -0.02766,-0.102546 0.03579,-0.04083 0.138348,-0.105794 0.185549,-0.135086 0.02117,-0.01459 0.04232,-0.0275 0.06023,-0.03917 0.09929,-0.06676 0.208338,-0.125336 0.325529,-0.187213 0.187174,-0.09925 0.380867,-0.201797 0.548513,-0.35155 0.05697,-0.04884 0.112303,-0.09767 0.16439,-0.146504 0.107425,-0.100916 0.211598,-0.196921 0.325529,-0.273422 0.161138,-0.107424 0.187179,-0.306008 0.209968,-0.465512 0.0033,-0.0375 0.01134,-0.09442 0.01792,-0.112291 0.0879,-0.219755 0.367846,-0.442718 0.615249,-0.63968 0.105794,-0.083 0.205084,-0.162754 0.291349,-0.242507 0.04721,-0.04396 0.09279,-0.08629 0.139987,-0.130208 0.209964,-0.196962 0.406911,-0.384134 0.639663,-0.525721 0.188807,-0.117216 0.465507,-0.279965 0.698258,-0.367884 0.260422,-0.09925 0.346693,-0.09437 0.664079,-0.07484 l 0.06511,0.0041 c 0.649433,0.0375 1.315135,0.02125 1.959685,0.0041 0.314137,-0.0079 0.62827,-0.01459 0.939151,-0.01625 0.113932,0 0.257165,-0.01958 0.408536,-0.03749 0.258797,-0.03251 0.743835,-0.09279 0.867537,0.01625 0.0082,0.005 0.02117,0.01625 0.0228,0.05537 -0.0033,0.01122 -0.0228,0.04554 -0.03417,0.06834 -0.04232,0.07325 -0.09929,0.175795 -0.09929,0.310882 0,0.146503 0.06837,0.247423 0.109053,0.307633 0.0082,0.01292 0.01792,0.02458 0.02117,0.02458 -0.01134,0.06021 -0.02929,0.123711 -0.0472,0.18717 -0.03254,0.122087 -0.07162,0.260424 -0.0765,0.395511 -0.0048,0.136711 0.102534,0.252297 0.239259,0.255547 0.133471,0.0084 0.250661,-0.100916 0.253915,-0.23763 0.0033,-0.07813 0.03254,-0.182296 0.0586,-0.281592 0.0228,-0.07975 0.04395,-0.157878 0.05697,-0.231129 0.03579,-0.190421 -0.05046,-0.319008 -0.09766,-0.387385 -0.0082,-0.01459 -0.0228,-0.03417 -0.0228,-0.03084 0.0017,-0.01292 0.02117,-0.04883 0.03579,-0.07325 0.04067,-0.07487 0.09766,-0.177379 0.0944,-0.312508 -0.0033,-0.172503 -0.06999,-0.320633 -0.192064,-0.424802 -0.161127,-0.139958 -0.393879,-0.182292 -0.644535,-0.182292 -0.198572,0 -0.408539,0.02583 -0.607111,0.05046 m -0.135095,18.740699 c 0.283211,-0.182296 0.625015,-0.3288 1.044946,-0.449261 0.467133,-0.131837 0.965194,-0.192046 1.611368,-0.192046 0.392259,0 0.719418,-0.117216 1.036809,-0.22788 0.216475,-0.07813 0.421559,-0.15138 0.639665,-0.183921 0.0228,-0.0041 0.03579,-0.0041 0.03579,-0.005 0.01145,0.0066 0.02117,0.01459 0.03254,0.02291 0.04395,0.03417 0.112303,0.08625 0.219729,0.130212 0.06999,0.02583 0.139981,0.04396 0.20834,0.05371 l -0.180668,0.05533 c -0.193691,0.06183 -0.389009,0.123713 -0.58595,0.180671 -0.08464,0.02458 -0.170906,0.04721 -0.25717,0.06838 -0.167645,0.04391 -0.307623,0.122044 -0.442719,0.196921 -0.09929,0.05533 -0.192062,0.107424 -0.284835,0.136712 -0.192063,0.06349 -0.393893,0.09605 -0.655941,0.107458 -0.183925,0.0066 -0.328783,0.07321 -0.445972,0.125294 -0.04721,0.02125 -0.117193,0.05371 -0.130214,0.05534 -0.195316,-0.06346 -0.46388,0.01792 -0.849631,0.149753 -0.100917,0.03417 -0.195319,0.06676 -0.250657,0.07975 -0.262051,0.06025 -0.535496,0.110708 -0.799173,0.157879 l -0.190434,0.03417 c -0.05697,0.0096 -0.113931,0.02125 -0.169275,0.03251 0.01629,-0.0635 0.01954,-0.139961 0,-0.232756 -0.0065,-0.03417 -0.0065,-0.06676 0,-0.128586 0.0033,-0.02291 0.01134,-0.04721 0.02117,-0.07975 0.0098,-0.03084 0.01792,-0.06021 0.02604,-0.09279 0.0065,-0.02583 0.01146,-0.05209 0.01792,-0.07813 0.01792,0.03084 0.04395,0.05863 0.07487,0.08142 0.04232,0.0275 0.09115,0.04083 0.138349,0.04083 0.0472,0 0.0944,-0.01291 0.135094,-0.03917"
       id="path588" />
  </g>
</svg>
